<svg xmlns="http://www.w3.org/2000/svg" viewBox="0 0 35 36"><path fill="#167287" fill-rule="evenodd" d="M30 7.3c4.2 4.3 3.8 9.6 3.8 15.2 0 5-3.3 8.5-3.8 9-.7.8-1.6 1.4-2.4 2l.1-.2a6 6 0 0 0 2.6-1.9 21 21 0 0 0 3.5-5.6c.1-.1.3 0 .2.1a9.8 9.8 0 0 1-1.3 3.2 20.7 20.7 0 0 1-2 2.7 7.4 7.4 0 0 1-2.8 2 19.6 19.6 0 0 1-3.2 1c-1.9.7-3.8 1-5.7 1-6.7-.1-7.4.5-13.2-4.3A16.7 16.7 0 0 1 .5 15.8 13.2 13.2 0 0 1 3 10.5C4 9.2 5 8 6.2 6.8a19 19 0 0 1 4-3c1.5-.8 3.2-1.4 4.8-1.6 1.7-.3 3.4-.2 5 .3.3 0 .2.2 0 .2-1.6-.4-3.3-.4-4.9 0-1.6.2-3.2.8-4.6 1.6l-.3.1c2.5-1 5.3-1.5 7.6-1.7 4.8-.3 8.5 1 12.2 4.6zm-3.2-3.9l-.1.2-5-3V.4a11 11 0 0 1 5 3z"/></svg>
