<svg viewBox="0 0 528 330" preserveAspectRatio="none" xmlns="http://www.w3.org/2000/svg"><path d="M443.941 33.21c49 .132 63-1.248 76 11.132 15.92 15.161 3.954 36.284-8.711 68.522l-.097.478c0-2.818-.135-2.548-.406.809-2.108 5.408-4.226 11.126-6.228 17.178a508.929 508.929 0 0 1-3.559 8.096c-3.47 7.723-12.281 13.616-26.434 17.679a22.877 22.877 0 0 0-16.565 21.989 21.55 21.55 0 0 0 15.732 20.749c9.937 2.785 16.375 7.968 19.315 15.549.086.22.17.447.252.677 1.66 52.951 8.29 90.045-6.936 94.425-41.302 11.881-294.363 22.794-404.863 17.338-48.581-2.4-73.05-50.686-80.48-108.87-.125-2.717.087-5.285.992-7.619 2.94-7.58 9.379-12.763 19.315-15.549A21.55 21.55 0 0 0 37 175.043a22.42 22.42 0 0 0-16.34-21.58c-13.05-3.676-19.576-9.385-19.576-17.126 0-.823-.01-1.596-.028-2.322C6.71 86.148 21.231 42.831 40.941 22.772c55.756-56.745 327 10.437 403 10.437z" fill="#000" fill-rule="evenodd"/></svg>
