<?xml version="1.0" encoding="UTF-8"?> <svg xmlns="http://www.w3.org/2000/svg" width="124" height="140" viewBox="0 0 124 140"><g fill="none" fill-rule="evenodd" transform="translate(-13 -1)"><g fill="#6ECD92" transform="translate(.4)"><path d="M73.5 119.2c25.9-2.4 25.9-5.5 42.5-21.7 9.4-9.1 16.3-23 16.3-37 0-1 0-18.6-12.5-31.2C106 15.6 94.2 1.8 73.5 1.8c-17.7 0-29.9 6-40.6 18.3-9 10.3-18.3 25.6-18.3 40.4 0 12 1.6 24 7.8 33.3a57.5 57.5 0 0 0 51 25.4z"></path><path d="M95.3 117.4l.8 1.7a13 13 0 0 1-6.9 1c-.2 0-.2-.6 0-.6l.7-.2.3-.1H90l-.4-.1c-.2 0-.1-.7 0-.7 2-.1 3.9-.5 5.6-1zM30.8 26.6a43 43 0 0 0-10.3 13.6 55.5 55.5 0 0 0-5.1 16.4c-.9 5.6-1 11.4-.5 17.2a126 126 0 0 0 2.6 17c.2 1-.4 1.1-.6.3-1.6-5.6-2.9-11.4-3.5-17.2-.7-5.8-.7-11.8.2-17.6.8-5.9 2.7-11.6 5.5-16.8 2.8-5.2 6.6-10 11.3-13.4.8-.6 1.1 0 .4.5zm64.4 90.8a45 45 0 0 1-4.5 1.6l-.5.2h.3c1.7.4 3.4.4 5.1 0h.4zm14.6-8.8a32.3 32.3 0 0 1-6.4 9.2c0 .1-.5-.2-.4-.4a33 33 0 0 1 6.4-9.2c0-.1.5.2.4.4zm16-72.6a34 34 0 0 1 6 10.4 72 72 0 0 1 3.4 11.3 25.7 25.7 0 0 1-.3 11.7c-.8 3.8-2.2 7.4-3.7 11-.2.5-.8.3-.6-.3 1-3.7 2.1-7.3 2.7-11a30 30 0 0 0 0-11.1 73.1 73.1 0 0 0-3-11.1 43.5 43.5 0 0 0-5-10.5c-.4-.5.2-.9.6-.4zM47.5 10C41 12.6 35 15.3 28.9 17.8c-.3.1-.6-.4-.4-.6a43 43 0 0 1 18.7-7.7c.3 0 .4.6.2.7z"></path></g><path fill="#235F3F" d="M81.1 89.2c-2.2-4.7-.8-8 1.1-12.5 3.8-8.8-2.7-15.7-5-23.7-1.1-3.7.3-6.2-1.4-11.2-1-3-4-6-4.8-8.8-.7 2.9-3.8 5.8-4.8 8.8-1.7 5-.3 7.5-1.3 11.2-2.4 8-8.9 14.9-5 23.7 1.8 4.4 3.2 7.8 1 12.5-2.4 5-3.5 9-2.6 14.6.6 4.4 3.4 9 7.1 13.3 1.1 1.2 2.5 2 4 2.3l-.1.2v21.3h3.4v-21.5a7.4 7.4 0 0 0 3.9-2.3 28 28 0 0 0 7.1-13.3c.9-5.7-.2-9.6-2.6-14.6z"></path></g></svg> 